<svg xmlns="http://www.w3.org/2000/svg" xmlns:xlink="http://www.w3.org/1999/xlink" viewBox="0 0 202 37"><path d="M 47.77 28.27 L 47.77 11.66 C 47.77 10.028 49.098 8.705 50.736 8.705 L 60.691 8.705 L 60.691 11.751 L 51.355 11.751 L 51.355 16.922 L 59.95 16.922 L 59.95 19.996 L 51.355 19.996 L 51.355 28.27 Z" fill="rgb(247,247,247)"></path><path d="M 64.246 12.703 C 63.633 12.703 63.103 12.511 62.661 12.131 C 62.216 11.751 61.995 11.242 61.995 10.607 C 61.995 9.972 62.216 9.465 62.661 9.082 C 63.106 8.702 63.633 8.51 64.246 8.51 C 64.899 8.51 65.435 8.702 65.862 9.082 C 66.284 9.465 66.499 9.972 66.499 10.607 C 66.499 11.242 66.288 11.748 65.862 12.131 C 65.435 12.515 64.899 12.703 64.246 12.703 Z M 62.557 28.27 L 62.557 17.859 C 62.557 15.985 64.081 14.464 65.966 14.464 L 65.966 28.27 Z" fill="rgb(247,247,247)"></path><path d="M 69.106 28.27 L 69.106 14.464 L 72.454 14.464 L 72.454 16.058 L 72.96 16.058 C 73.177 15.479 73.543 15.061 74.055 14.8 C 74.569 14.539 75.181 14.407 75.892 14.407 L 77.669 14.407 L 77.669 17.258 L 75.832 17.258 C 74.844 17.258 74.042 17.507 73.43 18 C 72.817 18.494 72.511 19.255 72.511 20.279 L 72.511 28.273 L 69.103 28.273 Z" fill="rgb(247,247,247)"></path><path d="M 85.673 28.663 C 84.212 28.663 82.921 28.371 81.807 27.783 C 80.69 27.195 79.822 26.368 79.2 25.296 C 78.578 24.224 78.266 22.973 78.266 21.537 L 78.266 21.2 C 78.266 19.748 78.572 18.491 79.184 17.428 C 79.796 16.366 80.655 15.542 81.763 14.954 C 82.867 14.366 84.143 14.074 85.585 14.074 C 87.027 14.074 88.252 14.366 89.319 14.954 C 90.386 15.542 91.216 16.366 91.809 17.428 C 92.403 18.491 92.699 19.729 92.699 21.147 L 92.699 22.294 L 81.706 22.294 C 81.747 23.376 82.151 24.24 82.921 24.894 C 83.691 25.548 84.641 25.872 85.765 25.872 C 86.888 25.872 87.69 25.642 88.224 25.186 C 88.757 24.73 89.161 24.212 89.439 23.637 L 92.254 25.007 C 91.976 25.51 91.576 26.044 91.055 26.613 C 90.531 27.183 89.833 27.667 88.965 28.066 C 88.094 28.465 86.999 28.666 85.677 28.666 Z M 81.731 19.858 L 89.227 19.858 C 89.148 18.946 88.779 18.217 88.116 17.676 C 87.454 17.136 86.601 16.865 85.553 16.865 C 84.506 16.865 83.597 17.136 82.946 17.676 C 82.293 18.217 81.889 18.943 81.731 19.858 Z" fill="rgb(247,247,247)"></path><path d="M 97.774 28.27 L 97.774 26.173 L 100.678 26.173 L 100.678 10.802 L 97.774 10.802 L 97.774 8.705 L 108.177 8.705 C 109.383 8.705 110.453 8.909 111.394 9.321 C 112.331 9.73 113.063 10.305 113.587 11.04 C 114.111 11.776 114.373 12.637 114.373 13.624 L 114.373 13.848 C 114.373 14.762 114.184 15.511 113.811 16.098 C 113.436 16.686 112.991 17.142 112.479 17.469 C 111.965 17.796 111.46 18.032 110.968 18.183 L 110.968 18.576 C 111.46 18.689 111.974 18.906 112.508 19.233 C 113.041 19.559 113.489 20.018 113.856 20.616 C 114.222 21.213 114.405 21.967 114.405 22.879 L 114.405 23.159 C 114.405 24.221 114.133 25.139 113.59 25.913 C 113.048 26.686 112.306 27.274 111.368 27.673 C 110.431 28.072 109.358 28.273 108.152 28.273 L 97.781 28.273 Z M 103.168 17.343 L 107.969 17.343 C 109.156 17.343 110.103 17.06 110.813 16.491 C 111.523 15.922 111.88 15.174 111.88 14.24 L 111.88 13.961 C 111.88 13.011 111.529 12.251 110.829 11.682 C 110.128 11.113 109.175 10.83 107.969 10.83 L 103.168 10.83 Z M 103.168 26.148 L 107.881 26.148 C 109.184 26.148 110.182 25.859 110.873 25.281 C 111.564 24.702 111.911 23.92 111.911 22.932 L 111.911 22.681 C 111.911 21.694 111.564 20.911 110.873 20.333 C 110.182 19.754 109.184 19.465 107.881 19.465 L 103.168 19.465 L 103.168 26.145 Z" fill="rgb(247,247,247)"></path><path d="M 121.689 28.663 C 120.682 28.663 119.764 28.497 118.934 28.16 C 118.104 27.824 117.45 27.34 116.977 26.708 C 116.503 26.076 116.267 25.303 116.267 24.388 C 116.267 23.473 116.503 22.687 116.977 22.084 C 117.45 21.477 118.104 21.021 118.934 20.713 C 119.764 20.405 120.692 20.251 121.721 20.251 L 126.61 20.251 L 126.61 19.245 C 126.61 18.277 126.31 17.513 125.707 16.953 C 125.104 16.394 124.211 16.114 123.024 16.114 C 121.837 16.114 120.95 16.378 120.297 16.909 C 119.644 17.441 119.202 18.154 118.962 19.047 L 116.768 18.377 C 117.005 17.613 117.381 16.919 117.895 16.296 C 118.41 15.671 119.095 15.168 119.956 14.787 C 120.815 14.407 121.847 14.215 123.053 14.215 C 124.908 14.215 126.351 14.668 127.38 15.57 C 128.406 16.476 128.92 17.745 128.92 19.387 L 128.92 25.564 C 128.92 26.123 129.198 26.403 129.75 26.403 L 131.085 26.403 L 131.085 28.276 L 129.04 28.276 C 128.387 28.276 127.863 28.104 127.468 27.761 C 127.074 27.415 126.875 26.956 126.875 26.378 L 126.875 26.236 L 126.518 26.236 C 126.3 26.591 126.01 26.959 125.644 27.34 C 125.278 27.723 124.779 28.038 124.148 28.289 C 123.517 28.541 122.696 28.666 121.689 28.666 Z M 121.957 26.761 C 123.34 26.761 124.46 26.375 125.322 25.601 C 126.18 24.828 126.61 23.743 126.61 22.345 L 126.61 22.036 L 121.809 22.036 C 120.881 22.036 120.114 22.228 119.511 22.609 C 118.908 22.989 118.609 23.564 118.609 24.328 C 118.609 25.092 118.921 25.689 119.543 26.117 C 120.165 26.544 120.969 26.758 121.957 26.758 Z" fill="rgb(247,247,247)"></path><path d="M 133.099 28.27 L 133.099 14.602 L 135.381 14.602 L 135.381 16.922 L 135.794 16.922 C 136.11 16.271 136.649 15.677 137.41 15.146 C 138.171 14.614 139.291 14.351 140.775 14.351 C 141.86 14.351 142.836 14.564 143.694 14.995 C 144.553 15.422 145.241 16.057 145.755 16.897 C 146.27 17.736 146.525 18.77 146.525 19.999 L 146.525 28.273 L 144.183 28.273 L 144.183 20.169 C 144.183 18.808 143.824 17.821 143.101 17.208 C 142.378 16.592 141.406 16.287 140.181 16.287 C 138.777 16.287 137.637 16.714 136.76 17.573 C 135.879 18.431 135.441 19.707 135.441 21.401 L 135.441 28.276 L 133.099 28.276 Z" fill="rgb(247,247,247)"></path><path d="M 150.08 28.27 L 150.08 8.708 L 152.422 8.708 L 152.422 20.223 L 152.835 20.223 L 159.473 14.605 L 162.733 14.605 L 154.701 21.257 L 162.97 28.273 L 159.741 28.273 L 152.835 22.319 L 152.422 22.319 L 152.422 28.273 L 150.08 28.273 Z" fill="rgb(247,247,247)"></path><path d="M 166.025 12.48 C 165.511 12.48 165.081 12.323 164.737 12.005 C 164.39 11.688 164.22 11.289 164.22 10.805 C 164.22 10.32 164.393 9.893 164.737 9.575 C 165.081 9.258 165.514 9.101 166.025 9.101 C 166.536 9.101 166.963 9.258 167.3 9.575 C 167.635 9.893 167.805 10.302 167.805 10.805 C 167.805 11.307 167.638 11.691 167.3 12.005 C 166.966 12.323 166.54 12.48 166.025 12.48 Z M 164.838 28.273 L 164.838 16.938 C 164.838 15.649 165.886 14.605 167.18 14.605 L 167.18 28.273 Z" fill="rgb(247,247,247)"></path><path d="M 170.914 28.27 L 170.914 14.602 L 173.196 14.602 L 173.196 16.922 L 173.609 16.922 C 173.925 16.271 174.465 15.677 175.225 15.146 C 175.986 14.614 177.107 14.351 178.59 14.351 C 179.676 14.351 180.651 14.564 181.51 14.995 C 182.368 15.422 183.056 16.057 183.571 16.897 C 184.085 17.736 184.341 18.77 184.341 19.999 L 184.341 28.273 L 181.999 28.273 L 181.999 20.169 C 181.999 18.808 181.639 17.821 180.916 17.208 C 180.193 16.592 179.221 16.287 177.997 16.287 C 176.592 16.287 175.453 16.714 174.575 17.573 C 173.695 18.431 173.256 19.707 173.256 21.401 L 173.256 28.276 L 170.914 28.276 Z" fill="rgb(247,247,247)"></path><path d="M 187.182 21.508 L 187.182 21.115 C 187.182 19.682 187.488 18.45 188.1 17.425 C 188.712 16.4 189.543 15.608 190.59 15.048 C 191.638 14.489 192.784 14.209 194.028 14.209 C 195.549 14.209 196.72 14.486 197.54 15.033 C 198.361 15.583 198.967 16.193 199.362 16.862 L 199.775 16.862 L 199.775 14.599 L 201.997 14.599 L 201.997 31.451 C 201.997 32.196 201.779 32.784 201.344 33.212 C 200.908 33.639 200.277 33.856 199.447 33.856 L 189.609 33.856 L 189.609 31.901 L 198.825 31.901 C 199.418 31.901 199.715 31.621 199.715 31.062 L 199.715 25.862 L 199.302 25.862 C 199.065 26.271 198.727 26.673 198.295 27.063 C 197.859 27.456 197.297 27.777 196.606 28.028 C 195.915 28.279 195.056 28.405 194.028 28.405 C 192.784 28.405 191.638 28.125 190.59 27.566 C 189.543 27.006 188.712 26.211 188.1 25.177 C 187.488 24.143 187.182 22.917 187.182 21.502 Z M 194.649 26.456 C 196.152 26.456 197.37 26.01 198.311 25.114 C 199.248 24.218 199.718 22.989 199.718 21.423 L 199.718 21.2 C 199.718 19.616 199.248 18.384 198.311 17.497 C 197.373 16.611 196.152 16.171 194.649 16.171 C 193.147 16.171 191.948 16.614 190.988 17.497 C 190.029 18.384 189.552 19.616 189.552 21.2 L 189.552 21.423 C 189.552 22.989 190.032 24.218 190.988 25.114 C 191.948 26.01 193.166 26.456 194.649 26.456 Z" fill="rgb(247,247,247)"></path><path d="M 34.391 16.233 C 35.359 16.233 36.142 15.451 36.142 14.489 L 36.142 8.189 C 36.142 3.948 32.68 0.5 28.422 0.5 L 7.72 0.5 C 3.462 0.5 0 3.948 0 8.189 L 0 28.811 C 0 33.048 3.462 36.5 7.72 36.5 L 27.579 36.5 C 27.579 36.5 27.592 36.5 27.598 36.5 C 27.601 36.5 27.608 36.5 27.611 36.5 C 27.658 36.5 27.706 36.494 27.753 36.491 C 27.753 36.491 27.756 36.491 27.759 36.491 C 27.785 36.491 27.81 36.491 27.835 36.484 C 29.028 36.333 30.742 35.947 32.112 34.966 C 34.372 33.35 35.823 31.015 36.098 28.559 C 36.335 26.434 35.678 24.432 34.195 22.769 C 33.642 22.15 32.727 22.002 32.004 22.417 C 31.285 22.832 30.956 23.696 31.222 24.482 C 31.414 25.048 30.884 25.447 30.717 25.554 C 30.499 25.696 29.738 26.101 29.003 25.438 C 27.964 24.498 28.05 23.932 28.469 22.285 C 29.082 19.896 30.006 16.287 23.694 12.181 C 23.06 11.767 22.23 11.807 21.639 12.282 C 21.046 12.754 20.828 13.552 21.096 14.259 C 21.794 16.108 20.995 17.155 18.862 19.276 C 16.627 21.502 13.566 24.548 16.065 29.798 C 16.479 30.669 17.523 31.043 18.401 30.628 C 19.275 30.216 19.648 29.172 19.234 28.302 C 17.858 25.41 19.01 24.067 21.343 21.744 C 22.498 20.597 23.905 19.195 24.527 17.378 C 25.733 18.843 25.436 19.996 25.073 21.42 C 24.619 23.193 23.997 25.623 26.645 28.019 C 28.296 29.515 30.663 29.713 32.56 28.525 C 32.295 29.861 31.386 31.181 30.07 32.124 C 29.483 32.545 28.567 32.853 27.488 33.001 L 7.72 33.001 C 5.397 33.001 3.507 31.118 3.507 28.805 L 3.507 8.189 C 3.507 5.875 5.397 3.992 7.72 3.992 L 28.425 3.992 C 30.748 3.992 32.639 5.875 32.639 8.189 L 32.639 14.489 C 32.639 15.454 33.425 16.233 34.391 16.233 Z" fill="rgb(204,105,66)"></path></svg>